<?xml version="1.0" encoding="UTF-8" standalone="no"?>
<!-- Created with Inkscape (http://www.inkscape.org/) -->

<svg
   version="1.1"
   id="svg2"
   width="242.5071"
   height="243.17172"
   viewBox="0 0 242.5071 243.17172"
   sodipodi:docname="facebook-base.jpg"
   xmlns:inkscape="http://www.inkscape.org/namespaces/inkscape"
   xmlns:sodipodi="http://sodipodi.sourceforge.net/DTD/sodipodi-0.dtd"
   xmlns="http://www.w3.org/2000/svg"
   xmlns:svg="http://www.w3.org/2000/svg">
  <defs
     id="defs6" />
  <sodipodi:namedview
     id="namedview4"
     pagecolor="#ffffff"
     bordercolor="#000000"
     borderopacity="0.25"
     inkscape:showpageshadow="2"
     inkscape:pageopacity="0.0"
     inkscape:pagecheckerboard="0"
     inkscape:deskcolor="#d1d1d1"
     showgrid="false" />
  <g
     inkscape:groupmode="layer"
     inkscape:label="Image"
     id="g8"
     transform="translate(259.36072,631.11688)">
    <path
       style="fill:#ffffff;stroke:#ffffff;stroke-width:0.487062;stroke-dasharray:none"
       d="m -254.96479,-389.71355 c -1.46656,-0.79575 -3.0008,-2.64121 -3.40944,-4.10103 -0.40863,-1.45982 -0.74297,-53.80791 -0.74297,-116.32908 v -113.67487 l 3.40944,-3.52724 3.40943,-3.52723 112.02435,0.37973 c 84.731133,0.28722 112.913983,0.66976 115.675773,1.57014 7.4517,2.42935 6.92927,-5.88958 7.37359,117.41345 0.28999,80.47903 0.0987,110.97535 -0.71321,113.68517 -0.61023,2.03677 -2.23268,5.03805 -3.60546,6.66949 l -2.49596,2.96628 -114.129533,-0.039 c -99.0472,-0.0339 -114.48192,-0.23024 -116.79601,-1.48585 z m 159.013493,-69.09924 v -54.06392 h 14.12481 14.12481 v -17.04719 -17.04718 h -14.12481 -14.12481 v -5.66795 c 0,-8.58643 2.26031,-14.93796 6.76389,-19.00667 5.35679,-4.83954 9.72383,-5.9561 18.63911,-4.76565 4.35045,0.58091 7.60893,0.61214 8.18111,0.0784 0.52301,-0.48786 1.1205,-8.28233 1.32776,-17.32105 0.43757,-19.08325 1.5981,-17.28908 -11.98385,-18.52702 -11.11265,-1.01287 -26.0398,0.28038 -32.898713,2.85026 -7.22437,2.70681 -16.33234,8.8173 -20.81814,13.96678 -4.09709,4.70327 -9.61569,15.67878 -11.67252,23.21452 -0.78193,2.86485 -1.69625,9.70196 -2.03182,15.19359 l -0.61011,9.98478 h -8.56286 c -4.70958,0 -8.76047,0.32877 -9.00198,0.73059 -0.24151,0.40183 -0.75895,8.07306 -1.14984,17.04719 l -0.71073,16.31659 h 9.85947 9.85948 v 54.06392 54.06393 h 22.40487 22.404873 v -54.06393 z"
       id="path2721" />
  </g>
</svg>
