<?xml version="1.0" encoding="UTF-8" standalone="no"?>
<!-- Created with Inkscape (http://www.inkscape.org/) -->

<svg
   version="1.1"
   id="svg2"
   width="1600"
   height="1600"
   viewBox="0 0 1600 1600"
   sodipodi:docname="45b4a89e52b777f233b012389a0e391e.jpg"
   xmlns:inkscape="http://www.inkscape.org/namespaces/inkscape"
   xmlns:sodipodi="http://sodipodi.sourceforge.net/DTD/sodipodi-0.dtd"
   xmlns="http://www.w3.org/2000/svg"
   xmlns:svg="http://www.w3.org/2000/svg">
  <defs
     id="defs6" />
  <sodipodi:namedview
     id="namedview4"
     pagecolor="#ffffff"
     bordercolor="#000000"
     borderopacity="0.25"
     inkscape:showpageshadow="2"
     inkscape:pageopacity="0.0"
     inkscape:pagecheckerboard="0"
     inkscape:deskcolor="#d1d1d1"
     showgrid="false" />
  <g
     inkscape:groupmode="layer"
     inkscape:label="Image"
     id="g8"
     transform="translate(1704.7184)">
    <path
       style="fill:#ffffff;stroke:none;stroke-width:1.33333"
       d="M -1704.7184,800 V 0 h 799.99998 800 v 800 800 h -800 -799.99998 z m 694,418.0734 c 3.6667,-1.0261 11.46665,-2.2844 17.33331,-2.7962 5.86667,-0.5118 11.42519,-1.5391 12.35226,-2.2829 0.92706,-0.7437 6.30466,-1.8045 11.95021,-2.3572 5.64555,-0.5528 10.48704,-1.6723 10.75887,-2.4878 0.27394,-0.8218 3.43686,-1.4826 7.09669,-1.4826 3.63135,0 7.93135,-0.8282 9.55555,-1.8405 1.6242,-1.0122 5.89256,-2.213 9.48524,-2.6684 3.59268,-0.4554 7.19268,-1.3489 8,-1.9857 0.80732,-0.6367 3.83721,-1.5855 6.73309,-2.1084 2.89588,-0.5229 6.47939,-1.8011 7.96335,-2.8405 1.48394,-1.0394 4.51458,-1.9089 6.73476,-1.9323 2.22016,-0.023 5.20133,-0.9233 6.62482,-2 1.4235,-1.0766 4.20003,-1.9576 6.17007,-1.9576 1.97005,0 4.32884,-0.9 5.24176,-2 0.91292,-1.1 3.62219,-2 6.02061,-2 2.44435,0 4.66622,-0.796 5.05582,-1.8113 0.38229,-0.9962 3.14648,-2.2033 6.14265,-2.6824 2.99617,-0.4791 5.44759,-1.464 5.44759,-2.1887 0,-0.7247 0.75,-1.3213 1.66666,-1.3258 0.91667,0 3.20666,-0.8118 5.08887,-1.7941 1.88221,-0.9822 5.10469,-2.2081 7.16107,-2.7243 2.05637,-0.5161 4.60924,-1.8087 5.67304,-2.8725 1.06378,-1.0638 3.32712,-1.9342 5.02961,-1.9342 1.70249,0 3.4408,-0.9 3.86292,-2 0.42211,-1.1 2.22211,-2 4,-2 1.77788,0 3.57788,-0.9 4,-2 0.42211,-1.1 2.28629,-2 4.14265,-2 2.11127,0 3.37518,-0.7489 3.37518,-2 0,-1.3333 1.33333,-2 4,-2 2.66666,0 4,-0.6667 4,-2 0,-1.2511 1.2639,-2 3.37517,-2 1.85636,0 3.70648,-0.8633 4.11139,-1.9185 0.40492,-1.0552 2.48609,-2.3029 4.62482,-2.7726 2.13874,-0.4698 3.88862,-1.4064 3.88862,-2.0815 0,-0.6751 0.85714,-1.2274 1.90476,-1.2274 1.04762,0 2.72296,-0.75 3.72297,-1.6667 2.71083,-2.4848 6.59252,-4.9048 10.7056,-6.674 2.01667,-0.8675 3.66667,-2.3457 3.66667,-3.285 0,-0.9392 1.12653,-1.7076 2.50341,-1.7076 1.37687,0 3.25033,-0.9 4.16325,-2 0.91292,-1.1 2.42219,-2 3.35395,-2 0.93175,0 2.03944,-0.9 2.46156,-2 0.42211,-1.1 1.55259,-2 2.51216,-2 0.95959,0 3.66733,-1.7561 6.0172,-3.9024 2.34988,-2.1462 5.4836,-4.2867 6.96381,-4.7565 1.48023,-0.4698 2.69132,-1.4137 2.69132,-2.0977 0,-0.6839 0.83582,-1.2434 1.85735,-1.2434 1.02155,0 2.20271,-0.9 2.62483,-2 0.4221,-1.1 1.42916,-2 2.23788,-2 0.80873,0 2.24418,-0.75 3.18989,-1.6667 0.94572,-0.9167 4.03311,-3.4667 6.86087,-5.6667 2.82776,-2.2 6.21113,-5.05 7.51861,-6.3333 1.30748,-1.2833 2.82724,-2.3523 3.37724,-2.3755 1.6578,-0.07 8.33333,-6.3933 8.33333,-7.8939 0,-0.7685 0.9,-1.3973 2,-1.3973 1.09997,0 1.99997,-0.9 1.99997,-2 0,-1.1 0.5331,-2 1.1847,-2 3.5735,0 36.8983,-33.411 57.7198,-57.869 2.4359,-2.8614 6.0789,-6.932 8.0955,-9.046 2.0167,-2.114 3.6667,-4.2226 3.6667,-4.6858 0,-0.8392 2.569,-3.8029 7,-8.07533 1.2833,-1.2374 2.3333,-2.79766 2.3333,-3.46726 0,-0.6696 1.35,-2.52492 3,-4.12295 3.3977,-3.29061 5.7459,-6.69348 7.6369,-11.06696 0.7134,-1.65 1.912,-3 2.6635,-3 0.7514,0 1.3663,-0.87019 1.3663,-1.93375 0,-1.06356 0.75,-2.41356 1.6667,-3 1.8713,-1.19717 4.3643,-4.91462 6.3035,-9.39958 0.7134,-1.65 1.842,-3 2.508,-3 0.6659,0 1.5957,-1.05 2.0661,-2.33334 1.6631,-4.53665 4.9508,-9.66666 6.1951,-9.66666 0.6933,0 1.2606,-1.12654 1.2606,-2.50342 0,-1.37686 0.9,-3.25033 2,-4.16325 1.1,-0.91292 2,-2.43639 2,-3.38548 0,-0.94909 0.45,-1.92563 1,-2.17008 0.55,-0.24444 2.5,-3.43379 4.3333,-7.08744 1.8334,-3.65364 4.0834,-7.44651 5,-8.42857 0.9167,-0.98207 1.6667,-2.64271 1.6667,-3.69034 0,-1.04761 0.5886,-1.90476 1.3079,-1.90476 0.7194,0 1.6844,-1.5 2.1446,-3.33333 0.4601,-1.83333 1.3239,-3.33333 1.9194,-3.33333 0.5956,0 1.4767,-1.79312 1.9581,-3.98471 0.4813,-2.1916 1.429,-4.327 2.1059,-4.74536 0.6769,-0.41836 1.2308,-1.94407 1.2308,-3.39047 0,-1.4464 0.9,-2.97518 2,-3.39729 1.1,-0.42212 2,-2.12981 2,-3.79489 0,-1.6651 0.9,-3.77436 2,-4.68728 1.1,-0.91292 2,-3.10522 2,-4.87178 0,-1.76656 0.9,-3.55728 2,-3.97938 1.1,-0.42212 2.019,-2.05328 2.0424,-3.62483 0.023,-1.57153 0.9233,-4.02203 2,-5.44552 1.0766,-1.42349 1.9576,-3.90003 1.9576,-5.5034 0,-1.60339 0.9,-3.66217 2,-4.57509 1.1,-0.91292 2,-2.73776 2,-4.05522 0,-1.31744 1.0015,-4.39397 2.2256,-6.83673 3.6613,-7.30653 4.0589,-8.33083 5.1057,-13.15181 0.552,-2.5426 1.5738,-4.98644 2.2706,-5.43075 0.6968,-0.44431 1.6004,-3.29431 2.0081,-6.33333 0.4076,-3.03903 1.2621,-5.5255 1.8989,-5.5255 0.6367,0 1.1577,-1.68532 1.1577,-3.74516 0,-2.05984 0.881,-4.90984 1.9576,-6.33333 1.0767,-1.42349 1.9804,-4.08817 2.0082,-5.92151 0.028,-1.83333 0.947,-5.05192 2.0424,-7.15241 1.0955,-2.10049 1.9918,-5.59335 1.9918,-7.76191 0,-2.16854 0.9,-4.84282 2,-5.94282 1.1,-1.1 2,-3.98387 2,-6.40859 0,-2.42473 0.9,-6.5626 2,-9.19528 1.1,-2.63267 2,-6.78595 2,-9.22949 0,-2.44356 0.5474,-5.01283 1.2164,-5.7095 1.3858,-1.44309 3.8014,-14.18356 5.2963,-27.93333 0.5581,-5.13333 1.7211,-10.64389 2.5844,-12.24568 0.8633,-1.60179 1.5696,-8.09123 1.5696,-14.42099 0,-6.32976 0.5663,-12.56685 1.2585,-13.86021 0.6922,-1.29336 1.617,-14.00391 2.0551,-28.24568 0.4382,-14.24176 1.2218,-34.73116 1.7415,-45.532 l 0.9449,-19.63789 4.4156,-4.02878 c 2.4286,-2.21582 4.7578,-4.02877 5.1759,-4.02877 0.4182,0 2.7072,-1.95 5.0867,-4.33333 5.1076,-5.11572 14.0323,-13 14.7155,-13 1.1013,0 13.9396,-13.56644 13.9396,-14.73016 0,-0.69842 0.9,-1.26984 2,-1.26984 1.1,0 2,-0.9 2,-2 0,-1.1 0.9,-2 2,-2 1.1,0 2,-0.9 2,-2 0,-1.1 0.9,-2 2,-2 1.1,0 2,-0.9 2,-2 0,-1.1 0.9,-2 2,-2 1.1,0 2,-0.91883 2,-2.04184 0,-1.12303 0.9,-2.38722 2,-2.80932 1.1,-0.42212 2,-1.2826 2,-1.91219 0,-1.006 1.7042,-3.04593 10.0378,-12.01517 1.0792,-1.16152 1.9622,-2.49083 1.9622,-2.95403 0,-0.4632 1.65,-2.57473 3.6667,-4.69231 2.0167,-2.11757 4.4281,-4.98825 5.3587,-6.3793 0.9307,-1.39104 3.7807,-5.48479 6.3334,-9.0972 7.7428,-10.95724 5.9973,-13.0656 -7.0679,-8.53688 -4.9266,1.70769 -9.7504,3.8549 -10.7194,4.77157 -0.9691,0.91667 -3.3691,1.68575 -5.3334,1.70907 -1.9643,0.0233 -4.7361,0.92333 -6.1596,2 -1.4235,1.07668 -4.1588,1.9576 -6.0785,1.9576 -1.9196,0 -4.655,0.88092 -6.0785,1.9576 -1.4235,1.07666 -4.5776,1.97666 -7.0091,2 -2.4316,0.0233 -5.7316,0.77757 -7.3334,1.6761 -3.454,1.9376 -13.9148,4.54315 -27.1477,6.76191 -5.2627,0.88241 -10.0127,2.05439 -10.5555,2.60439 -1.3968,1.41541 -5.8758,1.24445 -5.8758,-0.22428 0,-2.75739 1.7356,-5.44239 3.5179,-5.44239 1.0445,0 2.2445,-0.9 2.6666,-2 0.4221,-1.1 1.6033,-2 2.6249,-2 1.0215,0 1.8573,-0.6 1.8573,-1.33333 0,-1.35468 4.7808,-6.66667 6,-6.66667 1.2192,0 6,-5.31199 6,-6.66667 0,-0.73333 0.6,-1.33333 1.3333,-1.33333 1.3822,0 6.6667,-4.79171 6.6667,-6.04493 0,-0.39139 1.8,-2.47116 4,-4.62174 2.2,-2.15057 4,-4.53034 4,-5.2884 0,-0.75804 0.9,-1.37826 2,-1.37826 1.1,0 2,-0.56298 2,-1.25104 0,-0.68808 1.8,-3.22179 4,-5.63048 2.2,-2.4087 4,-5.11591 4,-6.01604 0,-0.90014 0.7559,-2.11642 1.6799,-2.70286 0.9239,-0.58644 2.8739,-3.46625 4.3333,-6.39958 1.4594,-2.93334 3.0226,-5.63334 3.4738,-6 0.4511,-0.36667 1.282,-2.16667 1.8463,-4 0.5644,-1.83334 1.3952,-3.63334 1.8464,-4 1.204,-0.9785 9.2064,-17.49887 10.1723,-21 0.4552,-1.65 1.3873,-3 2.0712,-3 1.5467,0 1.6569,-7.5871 0.124,-8.53451 -0.6157,-0.38055 -3.3136,0.48404 -5.9952,1.92131 -2.6816,1.43725 -5.7778,2.6132 -6.8805,2.6132 -1.1026,0 -2.0048,0.58857 -2.0048,1.30793 0,0.71936 -1.6441,1.72056 -3.6535,2.22489 -2.0094,0.50432 -4.4522,1.71576 -5.4285,2.69207 -0.9764,0.97631 -2.8588,1.77511 -4.1833,1.77511 -1.3245,0 -3.1551,0.9 -4.068,2 -0.913,1.1 -2.6529,2 -3.8666,2 -1.2137,0 -3.3903,0.81048 -4.8368,1.80106 -1.4465,0.9906 -4.28,2.20203 -6.2966,2.69208 -2.0167,0.49004 -3.6667,1.47956 -3.6667,2.19892 0,0.71936 -0.9329,1.30794 -2.0732,1.30794 -1.9022,0 -11.7544,3.87514 -16.6372,6.54389 -1.1241,0.61436 -3.9326,1.53188 -6.2412,2.03893 -2.3086,0.50706 -4.9124,1.78335 -5.7862,2.83622 -0.8738,1.05286 -3.6581,1.91429 -6.1874,1.91429 -2.5292,0 -5.4986,0.9 -6.5986,2 -1.1,1.1 -3.487,2 -5.3043,2 -1.8174,0 -5.0265,0.89059 -7.1315,1.97908 -5.0319,2.60209 -26.8955,3.40789 -27.7005,1.02092 -0.3092,-0.91667 -1.2621,-1.66953 -2.1177,-1.67304 -0.8555,-0.004 -3.8389,-2.10351 -6.6297,-4.66667 -2.7909,-2.56316 -5.3695,-4.66029 -5.7304,-4.66029 -0.3609,0 -2.0463,-1.5 -3.7454,-3.33333 -1.699,-1.83334 -3.7406,-3.33334 -4.5367,-3.33334 -0.7961,0 -1.9273,-0.79525 -2.5138,-1.76721 -0.5864,-0.97197 -1.9662,-2.16815 -3.0662,-2.65819 -3.616,-1.61084 -7.315,-4.21258 -8.3996,-5.90793 -0.5865,-0.91667 -2.2066,-1.66667 -3.6004,-1.66667 -1.3938,0 -3.014,-0.75 -3.6004,-1.66666 -1.3854,-2.1654 -8.9153,-6.33334 -11.4421,-6.33334 -1.0804,0 -2.7113,-0.9 -3.6242,-2 -0.9129,-1.1 -3.0129,-2 -4.6667,-2 -1.6537,0 -3.7537,-0.9 -4.6666,-2 -0.913,-1.1 -3.051,-2 -4.7513,-2 -1.7002,0 -3.4299,-0.54778 -3.8437,-1.21732 -0.4138,-0.66952 -3.1982,-1.63054 -6.1877,-2.1356 -2.9894,-0.50506 -7.0363,-1.75357 -8.993,-2.77448 -1.9567,-1.02089 -5.4723,-1.85986 -7.8123,-1.86438 -2.3401,-0.004 -4.5848,-0.54247 -4.9884,-1.19544 -0.4036,-0.65298 -12.289,-1.6087 -26.412,-2.12382 -29.26605,-1.06745 -62.42597,0.94932 -66.87777,4.0675 -1.49997,1.05061 -4.92024,1.91021 -7.60061,1.91021 -2.70531,0 -5.61184,0.88976 -6.53325,2 -0.91292,1.1 -2.95952,2 -4.548,2 -1.5885,0 -5.24188,1.2 -8.11867,2.66667 -2.87679,1.46666 -6.00364,2.66666 -6.94859,2.66666 -0.94494,0 -1.71808,0.55234 -1.71808,1.22739 0,0.67507 -1.8,1.62275 -4,2.10595 -2.2,0.4832 -4,1.3832 -4,2 0,0.6168 -1.8,1.5168 -4,2 -2.2,0.4832 -4,1.3832 -4,2 0,0.6168 -1.8,1.5168 -4,2 -2.2,0.4832 -4,1.73088 -4,2.77261 0,1.04172 -1.2,1.89405 -2.66666,1.89405 -1.46667,0 -2.66667,0.58858 -2.66667,1.30794 0,0.71936 -1.5,1.6844 -3.33333,2.14454 -1.83334,0.46014 -3.33334,1.60159 -3.33334,2.53656 0,0.93496 -1.05,2.09607 -2.33333,2.58022 -5.12101,1.93196 -8.33333,4.14726 -8.33333,5.74692 0,0.9261 -0.91883,1.68382 -2.04184,1.68382 -1.12303,0 -2.38722,0.9 -2.80932,2 -0.42212,1.1 -1.60328,2 -2.62483,2 -1.02153,0 -1.85735,0.9 -1.85735,2 0,1.1 -0.9,2 -2,2 -1.1,0 -2,0.51504 -2,1.14452 0,0.6295 -3.75,5.01144 -8.33333,9.73768 -10.38329,10.70702 -14.33333,15.42722 -14.33333,17.12795 0,0.72775 -0.63122,1.32319 -1.4027,1.32319 -0.77148,0 -2.03017,1.8 -2.79709,4 -0.76693,2.2 -1.93572,4 -2.59732,4 -0.66159,0 -1.20289,0.83581 -1.20289,1.85734 0,1.02155 -0.9,2.20271 -2,2.62483 -1.1,0.42211 -2,1.95648 -2,3.40973 0,1.45324 -0.75056,3.12207 -1.66792,3.70851 -0.91735,0.58644 -3.05266,3.90267 -4.74512,7.36939 -1.69247,3.46672 -3.6419,6.65213 -4.33208,7.07869 -0.69019,0.42655 -1.25488,2.16668 -1.25488,3.86693 0,1.70027 -0.9,3.83832 -2,4.75124 -1.1,0.91292 -2,3.38639 -2,5.49659 0,2.11021 -0.57282,3.83675 -1.27292,3.83675 -0.7001,0 -1.66812,2.10662 -2.15115,4.6814 -0.48303,2.57476 -1.39283,4.99941 -2.02176,5.38812 -0.62895,0.3887 -1.54001,3.69554 -2.0246,7.34853 -0.48459,3.65299 -1.40197,6.96375 -2.03865,7.35723 -0.63667,0.39349 -1.15759,3.92724 -1.15759,7.85278 0,3.92555 -0.91763,11.84014 -2.03916,17.58798 -2.44019,12.50578 -1.51815,50.40537 1.48308,60.96148 1.01811,3.58096 1.48109,7.98512 1.02884,9.78702 -0.76716,3.0566 -1.23503,3.21898 -6.98084,2.42275 -3.38723,-0.46939 -13.65535,-1.17561 -22.81805,-1.56937 -9.16272,-0.39378 -16.96272,-1.1653 -17.33334,-1.7145 -0.61268,-0.90788 -8.51866,-2.02361 -37.27531,-5.26044 -5.4641,-0.61504 -10.1641,-1.80632 -10.4444,-2.64728 -0.2803,-0.84097 -2.879,-1.52904 -5.7747,-1.52904 -2.8958,0 -7.4191,-0.9 -10.0518,-2 -2.6326,-1.1 -7.0705,-2 -9.8619,-2 -2.7914,0 -5.8681,-0.75 -6.8372,-1.66666 -0.969,-0.91667 -4.1619,-1.87482 -7.0952,-2.12922 -2.9333,-0.2544 -5.5333,-1.0044 -5.7778,-1.66666 -0.2444,-0.66227 -2.0444,-1.20782 -4,-1.21234 -1.9555,-0.004 -5.2741,-0.90452 -7.3746,-2 -2.1005,-1.09548 -5.4771,-1.99178 -7.5034,-1.99178 -2.0264,0 -4.4313,-0.9 -5.3442,-2 -0.9129,-1.1 -3.6129,-2 -6,-2 -2.3871,0 -5.0871,-0.9 -6,-2 -0.9129,-1.1 -2.9717,-2 -4.5751,-2 -1.6034,0 -4.0799,-0.88092 -5.5034,-1.9576 -1.4235,-1.07667 -3.981,-1.97667 -5.6834,-2 -1.7024,-0.0233 -3.9953,-0.9424 -5.0953,-2.0424 -1.1,-1.1 -3.2,-2 -4.6666,-2 -1.4667,0 -3.5667,-0.9 -4.6667,-2 -1.1,-1.1 -3.4217,-2 -5.1594,-2 -1.7377,0 -3.5017,-0.55384 -3.92,-1.23075 -0.4184,-0.67692 -2.5538,-1.62459 -4.7454,-2.10595 -2.1916,-0.48134 -3.9847,-1.42752 -3.9847,-2.10258 0,-0.67506 -0.75,-1.23499 -1.6667,-1.24428 -0.9166,-0.009 -5.2012,-1.80928 -9.5212,-4 -4.32,-2.19071 -8.5966,-3.98311 -9.5034,-3.98311 -0.9069,0 -2.3958,-0.9 -3.3087,-2 -0.9129,-1.1 -2.7435,-2 -4.068,-2 -1.3245,0 -3.2011,-0.75 -4.1701,-1.66667 -0.9691,-0.91666 -4.5983,-3.05197 -8.065,-4.74512 -3.4668,-1.69314 -6.6522,-3.64314 -7.0787,-4.33333 -0.4266,-0.69019 -1.9402,-1.25488 -3.3636,-1.25488 -1.4234,0 -2.5879,-0.61485 -2.5879,-1.36633 0,-0.75148 -1.35,-1.97726 -3,-2.72392 -4.5312,-2.05047 -9.0495,-4.7592 -10.7123,-6.42199 -0.8183,-0.81827 -2.5677,-1.48776 -3.8877,-1.48776 -1.32,0 -2.4069,-0.75 -2.4153,-1.66667 -0.01,-0.91666 -2.5585,-2.85726 -5.6667,-4.31244 -3.1083,-1.45516 -6.1312,-3.40516 -6.7176,-4.33333 -0.5865,-0.92816 -1.8865,-1.68756 -2.8889,-1.68756 -1.0025,0 -2.0227,-0.45 -2.2671,-1 -0.2444,-0.55 -2.8947,-2.66248 -5.8895,-4.6944 -2.9947,-2.03192 -6.6049,-4.73192 -8.0226,-6 -1.4177,-1.26808 -6.0174,-4.62867 -10.2216,-7.46797 -4.2043,-2.83931 -7.6441,-5.68931 -7.6441,-6.33334 0,-0.64402 -0.9,-1.17096 -2,-1.17096 -1.1,0 -2,-0.9 -2,-2 0,-1.1 -0.9,-2 -2,-2 -1.1,0 -2,-0.46184 -2,-1.02629 0,-0.56447 -3.0808,-3.41447 -6.8462,-6.33333 -3.7654,-2.91888 -8.5861,-6.95704 -10.7126,-8.97371 -2.1266,-2.01667 -4.4458,-3.66667 -5.1538,-3.66667 -0.7081,0 -1.2874,-0.9 -1.2874,-2 0,-1.1 -0.5536,-2 -1.2301,-2 -0.6766,0 -6.9209,-5.55 -13.8763,-12.33333 -42.128,-41.08616 -43.7689,-42.382 -46.2969,-36.56097 -0.6913,1.59186 -1.7573,3.7943 -2.3688,4.8943 -3.6493,6.56491 -5.5612,11.20022 -5.5612,13.48323 0,1.43025 -0.9,2.94583 -2,3.36793 -1.2151,0.46627 -2,2.4832 -2,5.13908 0,2.40439 -0.8963,6.09019 -1.9918,8.19068 -1.0955,2.1005 -1.9955,5.17723 -2,6.83718 0,1.65994 -0.5892,4.05994 -1.2992,5.33333 -0.7101,1.27339 -2.0346,6.81524 -2.9434,12.31524 -2.0616,12.47615 -2.1155,68.50189 -0.068,70.96888 0.7749,0.93379 1.8375,6.04779 2.3613,11.36445 0.5239,5.31667 1.4478,9.66667 2.0531,9.66667 0.6054,0 1.4484,2.25 1.8735,5 0.425,2.75 1.6522,6.69863 2.7271,8.77472 1.0748,2.07609 1.9542,5.18324 1.9542,6.90476 0,1.72152 0.9,4.03004 2,5.13004 1.1,1.1 2,3.2 2,4.66667 0,1.46666 0.7988,3.46546 1.7751,4.44177 0.9763,0.97632 2.1878,3.41917 2.6921,5.42857 0.5043,2.00942 1.4579,3.65347 2.119,3.65347 0.661,0 1.5973,1.8 2.0805,4 0.4832,2.2 1.4309,4 2.1059,4 0.6751,0 1.2274,0.85715 1.2274,1.90476 0,1.04763 1.0462,2.95095 2.3249,4.22963 2.6123,2.61233 5.2155,6.71202 6.476,10.19894 0.4639,1.28334 1.6735,2.33334 2.688,2.33334 1.0144,0 1.8445,0.6882 1.8445,1.52934 0,1.65235 7.9786,11.97186 12.943,16.74032 1.6813,1.61499 3.057,3.56499 3.057,4.33334 0,0.76834 0.9,1.397 2,1.397 1.1,0 2,0.9 2,2 0,1.1 0.8358,2 1.8573,2 1.0215,0 2.2027,0.9 2.6248,2 0.4221,1.1 1.6863,2 2.8093,2 1.1231,0 2.0419,0.9 2.0419,2 0,1.1 0.6,2 1.3333,2 0.7334,0 2.4444,1.05 3.8025,2.33333 5.4839,5.18237 11.2058,9.66667 12.3346,9.66667 0.6579,0 1.1963,0.58857 1.1963,1.30793 0,2.60252 -7.0791,3.04905 -13.9587,0.88048 -3.8183,-1.20363 -9.8897,-2.20749 -13.4919,-2.23081 -3.6316,-0.0235 -7.7025,-0.91452 -9.1376,-2 -1.4236,-1.07668 -5.1736,-1.9576 -8.3334,-1.9576 -3.1598,0 -5.7452,-0.54727 -5.7452,-1.21614 0,-0.66888 -2.5269,-1.64306 -5.6153,-2.16485 -3.0885,-0.5218 -6.5385,-1.42627 -7.6667,-2.00993 -8.7111,-4.50664 -13.2516,-6.29768 -14.0193,-5.52998 -0.4943,0.49427 -1.4835,-0.14632 -2.1982,-1.42354 -0.854,-1.5259 -2.9195,-2.32223 -6.0235,-2.32223 h -4.7238 l 0.6838,7 c 2.7576,28.22791 3.9124,36.58857 5.6178,40.66999 1.0698,2.56062 1.9643,6.2324 1.9876,8.1595 0.023,1.92712 0.9234,4.66852 2,6.09202 1.0767,1.42349 1.9576,4.27349 1.9576,6.33333 0,2.44015 0.6969,3.74516 2,3.74516 1.3144,0 2,1.3152 2,3.83675 0,2.1102 0.9,4.58366 2,5.49658 1.1,0.91292 2,2.46791 2,3.45554 0,1.93096 5.2736,12.77608 6.7483,13.8778 0.4907,0.36666 1.3136,2.01666 1.8285,3.66666 0.515,1.65 1.4958,3 2.1797,3 0.6839,0 1.2435,0.8082 1.2435,1.79599 0,0.98779 1.2,3.1796 2.6667,4.87068 1.4667,1.69108 2.6667,3.90172 2.6667,4.91252 0,1.01081 0.9,2.1832 2,2.60531 1.1,0.42212 2,1.32861 2,2.01444 0,1.25492 1.3634,3.15493 5.6666,7.89664 1.2834,1.41409 2.3334,2.86241 2.3334,3.21846 0,1.64676 29.6935,30.0193 31.417,30.0193 0.4254,0 1.5636,0.75 2.5294,1.66666 3.9444,3.7438 7.489,6.33334 8.6692,6.33334 0.6885,0 1.7317,0.75 2.3181,1.66666 0.5864,0.91667 3.1663,2.79651 5.7329,4.17742 2.5667,1.3809 5.3254,3.32074 6.1305,4.31073 0.8051,0.99 2.8734,2.01512 4.5963,2.27805 1.7228,0.26292 3.3641,1.1731 3.6473,2.02259 0.2831,0.84951 1.9836,1.54455 3.7789,1.54455 1.7952,0 3.6094,0.9 4.0315,2 0.4375,1.14004 2.4261,2 4.6248,2 2.1216,0 3.8574,0.55233 3.8574,1.22738 0,0.67507 1.8404,1.63163 4.0898,2.12567 2.2494,0.49405 5.6994,1.73804 7.6667,2.7644 1.9672,1.02636 4.335,1.86981 5.2616,1.87433 0.9266,0.004 2.7266,0.60731 4,1.33952 1.2734,0.73222 5.3152,1.81539 8.9819,2.40704 l 6.6667,1.07574 -6.6667,3.05514 c -6.265,2.87106 -8.9152,3.10763 -43.9839,3.9263 -32.9899,0.77013 -37.3654,1.12294 -37.7332,3.04264 -0.2289,1.19432 0.5139,3.10146 1.6505,4.23809 1.1366,1.13664 2.0666,3.536 2.0666,5.33192 0,1.79592 0.8411,3.96339 1.8692,4.81659 1.028,0.85321 2.2756,3.17066 2.7723,5.1499 0.4968,1.97924 1.3057,3.90463 1.7975,4.27864 0.4919,0.37402 2.3943,3.66938 4.2277,7.32303 1.8333,3.65364 4.0833,7.44651 5,8.42857 0.9166,0.98207 1.6666,2.64271 1.6666,3.69034 0,1.04761 0.9,1.90476 2,1.90476 1.1,0 2,0.92532 2,2.05628 0,2.02004 1.017,3.58244 5.6667,8.70596 1.2833,1.41409 2.3333,2.82581 2.3333,3.13712 0,2.23801 28.052,30.10064 30.3052,30.10064 0.9321,0 1.6948,0.9 1.6948,2 0,1.1 0.6202,2 1.3783,2 0.758,0 3.1378,1.8 5.2884,4 2.1506,2.20003 4.8303,4.00003 5.9551,4.00003 1.1247,0 2.0449,0.5595 2.0449,1.2434 0,0.684 1.35,1.6648 3,2.1798 1.65,0.5149 3.3,1.3192 3.6667,1.7873 2.4737,3.158 29.7311,17.4561 33.2778,17.4561 1.2169,0 3.3772,0.881 4.8006,1.9576 1.4235,1.0767 4.0882,1.9958 5.9216,2.0424 1.8333,0.047 4.498,0.9658 5.9215,2.0424 1.4235,1.0767 5.1093,1.9576 8.1906,1.9576 3.7501,0 5.8563,0.6613 6.37,2 0.5637,1.4689 2.8823,2 8.7307,2 4.3797,0 8.3065,0.5556 8.7261,1.2346 0.4197,0.6791 6.1551,1.6565 12.7454,2.172 6.5903,0.5156 11.9823,1.4938 11.9823,2.1739 0,1.6908 -8.058,8.9249 -10.9713,9.8496 -1.2991,0.4123 -2.362,1.3092 -2.362,1.9931 0,0.6839 -0.807,1.2435 -1.7934,1.2435 -0.9863,0 -2.8793,1.2 -4.2066,2.6667 -1.3273,1.4666 -3.1561,2.6666 -4.064,2.6666 -0.9079,0 -1.9961,0.9 -2.4182,2 -0.4221,1.1 -2.0217,2 -3.5547,2 -1.5329,0 -2.4272,0.5824 -1.9873,1.2943 0.44,0.7118 -0.6812,1.666 -2.4915,2.1203 -1.8102,0.4544 -3.6159,1.6719 -4.0127,2.7058 -0.3967,1.0338 -1.9589,1.8796 -3.4716,1.8796 -1.5127,0 -3.0957,0.9 -3.5178,2 -0.4222,1.1 -1.8679,2 -3.2128,2 -1.345,0 -2.7757,0.5345 -3.1794,1.1877 -0.7169,1.1599 -7.9987,5.202 -21.4233,11.8918 -14.1388,7.0458 -16.7934,8.2539 -18.1363,8.2539 -0.7632,0 -2.2876,0.9 -3.3876,2 -1.1,1.1 -3.3836,2 -5.0748,2 -1.6911,0 -3.8218,0.9 -4.7347,2 -0.9129,1.1 -3.3129,2 -5.3333,2 -2.0204,0 -4.4204,0.9 -5.3333,2 -0.913,1.1 -3.6864,2 -6.1633,2 -2.4769,0 -4.5034,0.5764 -4.5034,1.281 0,0.7046 -3.6,2.0247 -8,2.9335 -4.4,0.9088 -8,2.0507 -8,2.5377 0,0.4869 -2.7104,1.2568 -6.023,1.7108 -3.3126,0.4541 -7.7828,1.7356 -9.9338,2.8479 -2.1509,1.1123 -5.972,2.0224 -8.4913,2.0224 -2.5192,0 -6.299,0.8963 -8.3995,1.9918 -2.1005,1.0955 -6.3883,1.9955 -9.5286,2 -3.1402,0 -7.8632,0.9081 -10.4955,2.008 -3.7511,1.5672 -15.5989,2.2748 -54.7845,3.2716 -27.499,0.6996 -50.3201,1.5937 -50.7134,1.987 -1.054,1.0541 6.1836,7.4083 8.4383,7.4083 1.0622,0 1.9313,0.5413 1.9313,1.2029 0,0.6616 1.65,1.8633 3.6667,2.6706 2.0166,0.8072 5.4666,2.6221 7.6666,4.033 2.2,1.4109 4.7929,2.6091 5.7619,2.6627 0.9691,0.054 2.6619,0.9974 3.7619,2.0974 1.1,1.1 3.176,2 4.6133,2 1.4373,0 2.9586,0.9 3.3807,2 0.4222,1.1 2.1299,2 3.7949,2 1.6651,0 3.7744,0.9 4.6873,2 0.9129,1.1 2.8293,2 4.2585,2 1.4293,0 3.4987,0.9 4.5987,2 1.1,1.1 3.0836,2 4.4081,2 1.3245,0 3.1551,0.9 4.0681,2 0.9129,1.1 3.1052,2 4.8717,2 1.7666,0 3.5573,0.9 3.9794,2 0.4375,1.1401 2.4261,2 4.6248,2 2.1216,0 3.8574,0.5333 3.8574,1.185 0,0.6517 2.1,1.5789 4.6667,2.0604 2.5666,0.4815 4.6666,1.4211 4.6666,2.088 0,0.6668 2.1066,1.6077 4.6814,2.0907 2.5748,0.483 5.0102,1.4102 5.412,2.0604 0.4019,0.6502 2.5141,1.1822 4.6938,1.1822 2.2928,0 4.2866,0.8429 4.7306,2 0.4691,1.2223 2.4896,2 5.1963,2 2.4358,0 5.3288,0.9 6.4288,2 1.1,1.1 3.7282,2 5.8404,2 2.1122,0 5.0051,0.8809 6.4285,1.9576 1.4235,1.0767 4.5811,1.9767 7.0168,2 2.4357,0.023 5.3286,0.9424 6.4286,2.0424 1.1,1.1 4.3217,2 7.1594,2 2.8376,0 5.5042,0.558 5.9258,1.24 0.4214,0.682 4.2069,1.6632 8.412,2.1804 4.2051,0.5172 7.9991,1.4885 8.4312,2.1584 0.4321,0.67 4.2372,1.4239 8.4558,1.6755 4.2186,0.2515 8.3351,1.1222 9.1478,1.9348 0.8126,0.8127 4.5114,1.4776 8.2196,1.4776 3.7082,0 8.8382,0.6698 11.4,1.4885 2.5618,0.8187 10.9579,2.0471 18.6579,2.7298 7.7,0.6826 18.2,1.6628 23.3333,2.1781 16.2186,1.6281 131.0097,-0.8468 138.6667,-2.9897 z"
       id="path847" />
  </g>
</svg>
